<svg width="1635" height="301" viewBox="0 0 1635 301" fill="none" xmlns="http://www.w3.org/2000/svg">
<path d="M210.802 95C207.677 85.4356 203.558 76.8655 198.444 69.2898C193.425 61.6193 187.412 55.0852 180.404 49.6875C173.491 44.2898 165.631 40.1704 156.825 37.3295C148.018 34.4886 138.359 33.0682 127.847 33.0682C110.612 33.0682 94.9401 37.5189 80.8303 46.4205C66.7204 55.322 55.4988 68.4375 47.1655 85.767C38.8322 103.097 34.6655 124.356 34.6655 149.545C34.6655 174.735 38.8795 195.994 47.3075 213.324C55.7356 230.653 67.1465 243.769 81.5405 252.67C95.9344 261.572 112.128 266.023 130.12 266.023C146.787 266.023 161.465 262.472 174.154 255.369C186.938 248.172 196.881 238.04 203.984 224.972C211.181 211.809 214.779 196.326 214.779 178.523L225.575 180.795H138.075V149.545H248.87V180.795C248.87 204.754 243.756 225.587 233.529 243.295C223.397 261.004 209.381 274.735 191.484 284.489C173.681 294.148 153.226 298.977 130.12 298.977C104.362 298.977 81.7299 292.917 62.2223 280.795C42.8094 268.674 27.6579 251.439 16.7678 229.091C5.9723 206.742 0.574575 180.227 0.574575 149.545C0.574575 126.534 3.65223 105.843 9.80753 87.4716C16.0575 69.0057 24.8643 53.286 36.228 40.3125C47.5916 27.339 61.0386 17.3958 76.5689 10.483C92.0992 3.57007 109.192 0.113626 127.847 0.113626C143.188 0.113626 157.487 2.4337 170.745 7.07385C184.097 11.6193 195.982 18.106 206.398 26.5341C216.91 34.8674 225.669 44.8579 232.677 56.5057C239.684 68.0587 244.514 80.8902 247.165 95H210.802ZM554.658 149.545C554.658 180.227 549.119 206.742 538.039 229.091C526.96 251.439 511.761 268.674 492.442 280.795C473.124 292.917 451.06 298.977 426.249 298.977C401.439 298.977 379.374 292.917 360.056 280.795C340.738 268.674 325.539 251.439 314.46 229.091C303.38 206.742 297.84 180.227 297.84 149.545C297.84 118.864 303.38 92.3485 314.46 70C325.539 47.6515 340.738 30.4167 360.056 18.2955C379.374 6.17423 401.439 0.113626 426.249 0.113626C451.06 0.113626 473.124 6.17423 492.442 18.2955C511.761 30.4167 526.96 47.6515 538.039 70C549.119 92.3485 554.658 118.864 554.658 149.545ZM520.567 149.545C520.567 124.356 516.353 103.097 507.925 85.767C499.592 68.4375 488.276 55.322 473.977 46.4205C459.772 37.5189 443.863 33.0682 426.249 33.0682C408.636 33.0682 392.679 37.5189 378.38 46.4205C364.175 55.322 352.859 68.4375 344.431 85.767C336.098 103.097 331.931 124.356 331.931 149.545C331.931 174.735 336.098 195.994 344.431 213.324C352.859 230.653 364.175 243.769 378.38 252.67C392.679 261.572 408.636 266.023 426.249 266.023C443.863 266.023 459.772 261.572 473.977 252.67C488.276 243.769 499.592 230.653 507.925 213.324C516.353 195.994 520.567 174.735 520.567 149.545ZM804.8 4.0909H840.028V196.705C840.028 216.591 835.34 234.347 825.965 249.972C816.685 265.502 803.569 277.765 786.619 286.761C769.668 295.663 749.781 300.114 726.96 300.114C704.138 300.114 684.251 295.663 667.3 286.761C650.35 277.765 637.187 265.502 627.812 249.972C618.531 234.347 613.891 216.591 613.891 196.705V4.0909H649.119V193.864C649.119 208.068 652.244 220.71 658.494 231.79C664.744 242.775 673.645 251.439 685.198 257.784C696.846 264.034 710.766 267.159 726.96 267.159C743.153 267.159 757.073 264.034 768.721 257.784C780.369 251.439 789.27 242.775 795.425 231.79C801.675 220.71 804.8 208.068 804.8 193.864V4.0909ZM910.376 295V4.0909H1008.67C1031.4 4.0909 1050.05 7.97348 1064.64 15.7386C1079.22 23.4091 1090.02 33.9678 1097.02 47.4148C1104.03 60.8617 1107.53 76.1553 1107.53 93.2955C1107.53 110.436 1104.03 125.634 1097.02 138.892C1090.02 152.15 1079.27 162.566 1064.78 170.142C1050.29 177.623 1031.78 181.364 1009.24 181.364H929.694V149.545H1008.1C1023.63 149.545 1036.13 147.273 1045.6 142.727C1055.17 138.182 1062.08 131.742 1066.34 123.409C1070.7 114.981 1072.88 104.943 1072.88 93.2955C1072.88 81.6477 1070.7 71.4678 1066.34 62.7557C1061.99 54.0436 1055.03 47.3201 1045.46 42.5852C1035.9 37.7557 1023.25 35.3409 1007.53 35.3409H945.603V295H910.376ZM1047.31 164.318L1118.9 295H1077.99L1007.53 164.318H1047.31ZM1178.17 295H1141.24L1248.05 4.0909H1284.42L1391.24 295H1354.3L1267.37 50.1136H1265.1L1178.17 295ZM1191.8 181.364H1340.67V212.614H1191.8V181.364ZM1421.14 4.0909L1507.5 248.977H1510.91L1597.27 4.0909H1634.2L1527.39 295H1491.02L1384.2 4.0909H1421.14Z" fill="white"/>
</svg>
